# xmcd CD database file
#
# Track frame offsets:
#	150
#	22334
#	40771
#
# Disc length: 879 seconds
#
# Revision: 0
# Processed by: cddbd v1.5.1PL0 Copyright (c) Steve Scherf et al.
# Submitted via: CDex 1.51
#
DISCID=20036d03
DTITLE=岡崎律子 - Ritsuko Okazaki Private Recording In 1999
DYEAR=1999
DGENRE=J-Pop
TTITLE0=冬の陽
TTITLE1=The Bright Side
TTITLE2=星空にお祈り
EXTD=YEAR: 1999
EXTT0=
EXTT1=
EXTT2=
PLAYORDER=
